<?xml version="1.0" standalone="no"?><!DOCTYPE svg PUBLIC "-//W3C//DTD SVG 1.1//EN" "http://www.w3.org/Graphics/SVG/1.1/DTD/svg11.dtd"><svg t="1639386127495" class="icon" viewBox="0 0 1024 1024" version="1.1" xmlns="http://www.w3.org/2000/svg" p-id="10845" xmlns:xlink="http://www.w3.org/1999/xlink" width="200" height="200"><defs><style type="text/css"></style></defs><path d="M928 0h-832c-53.019 0-96 42.981-96 96v832c0 53.019 42.981 96 96 96h832c53.019 0 96-42.981 96-96v-832c0-53.019-42.98-96-96-96zM960 928c0 17.645-14.355 32-32 32h-832c-17.645 0-32-14.355-32-32v-832c0-17.645 14.355-32 32-32h832c17.645 0 32 14.355 32 32v832zM722.388 274.388l-333.76 333.76-82.834-100.583c-22.647-27.501-63.3-31.435-90.801-8.787s-31.435 63.301-8.787 90.801l127.676 155.037c0.065 0.078 0.129 0.156 0.193 0.234l0.129 0.157c0.113 0.138 0.235 0.266 0.351 0.402 0.599 0.714 1.21 1.421 1.845 2.114 0.361 0.396 0.734 0.775 1.103 1.161 0.297 0.309 0.58 0.626 0.884 0.931 0.119 0.119 0.246 0.229 0.365 0.347 0.465 0.459 0.94 0.903 1.417 1.346 0.356 0.33 0.711 0.659 1.073 0.979 0.509 0.453 1.025 0.894 1.543 1.327 0.356 0.295 0.715 0.587 1.075 0.875 0.525 0.419 1.052 0.83 1.587 1.23 0.388 0.29 0.78 0.569 1.172 0.849 0.517 0.368 1.034 0.736 1.561 1.087 0.453 0.303 0.914 0.591 1.373 0.881 0.478 0.302 0.953 0.611 1.438 0.899 0.608 0.363 1.225 0.702 1.843 1.043 0.351 0.193 0.695 0.398 1.047 0.585 1.001 0.529 2.013 1.031 3.035 1.503 0.025 0.011 0.050 0.021 0.074 0.032 1.005 0.463 2.020 0.897 3.042 1.303 0.218 0.087 0.439 0.164 0.659 0.249 0.833 0.322 1.669 0.633 2.513 0.918 0.281 0.095 0.565 0.182 0.848 0.273 0.787 0.255 1.575 0.499 2.37 0.723 0.317 0.089 0.633 0.172 0.951 0.257 0.766 0.203 1.534 0.394 2.306 0.569 0.339 0.076 0.677 0.151 1.017 0.223 0.757 0.159 1.515 0.302 2.276 0.433 0.352 0.061 0.704 0.123 1.057 0.178 0.757 0.119 1.515 0.217 2.275 0.307 0.356 0.042 0.711 0.091 1.068 0.129 0.782 0.080 1.565 0.138 2.349 0.19 0.332 0.022 0.663 0.054 0.995 0.071 0.986 0.050 1.973 0.075 2.96 0.080 0.121 0.001 0.239 0.011 0.359 0.011 0.994 0 1.989-0.029 2.983-0.074 0.135-0.006 0.269-0.018 0.404-0.025 0.855-0.045 1.709-0.105 2.563-0.185 0.214-0.020 0.429-0.045 0.643-0.068 0.775-0.079 1.551-0.171 2.325-0.279 0.239-0.033 0.478-0.070 0.717-0.106 0.754-0.114 1.506-0.24 2.256-0.381 0.24-0.045 0.48-0.090 0.72-0.138 0.758-0.151 1.514-0.317 2.268-0.496 0.222-0.053 0.445-0.102 0.666-0.157 0.798-0.198 1.591-0.414 2.384-0.643 0.171-0.049 0.343-0.093 0.513-0.144 1.914-0.571 3.81-1.231 5.68-1.986 0.293-0.119 0.582-0.25 0.874-0.374 0.604-0.255 1.207-0.51 1.805-0.784 0.431-0.197 0.857-0.409 1.285-0.617 0.448-0.217 0.895-0.434 1.339-0.662 0.484-0.249 0.963-0.508 1.441-0.77 0.377-0.206 0.753-0.414 1.126-0.627 0.51-0.292 1.017-0.593 1.521-0.9 0.332-0.203 0.662-0.411 0.991-0.619 0.523-0.332 1.043-0.669 1.558-1.017 0.305-0.206 0.605-0.421 0.909-0.633 0.519-0.365 1.039-0.73 1.55-1.113 0.314-0.234 0.621-0.481 0.932-0.722 0.483-0.374 0.966-0.745 1.44-1.133 0.025-0.021 0.053-0.041 0.078-0.062 0.235-0.194 0.455-0.399 0.687-0.595 0.557-0.473 1.115-0.944 1.66-1.439 0.577-0.523 1.131-1.063 1.685-1.602 0.189-0.185 0.386-0.358 0.573-0.545l0.127-0.127c0.081-0.081 0.161-0.161 0.243-0.243l383.63-383.63c25.191-25.19 25.191-66.034 0-91.225-25.193-25.19-66.034-25.19-91.225 0.001z" fill="#1296db" p-id="10846"></path></svg>